<svg width="32" height="32" viewBox="0 0 32 32" fill="none" xmlns="http://www.w3.org/2000/svg">
<path opacity="0.3" fill-rule="evenodd" clip-rule="evenodd" d="M5.33337 5.33335L15.6315 3.40246C15.8751 3.35679 16.125 3.35679 16.3686 3.40246L26.6667 5.33335V17.9033C26.6667 21.696 24.7129 25.2212 21.4967 27.2313L16.53 30.3354C16.2058 30.5381 15.7943 30.5381 15.47 30.3354L10.5034 27.2313C7.28719 25.2212 5.33337 21.696 5.33337 17.9033L5.33337 5.33335Z" fill="white"/>
<path fill-rule="evenodd" clip-rule="evenodd" d="M14.9 19.6667C14.5805 19.6667 14.2611 19.5389 14.0055 19.2833L11.45 16.7278C10.9389 16.2167 10.9389 15.45 11.45 14.9389C11.9611 14.4278 12.7917 14.4278 13.2389 14.9389L14.9 16.6L19.1167 12.3833C19.6278 11.8722 20.3944 11.8722 20.9055 12.3833C21.4167 12.8944 21.4167 13.6611 20.9055 14.1722L15.7944 19.2833C15.5389 19.5389 15.2194 19.6667 14.9 19.6667Z" fill="white"/>
</svg>
