<svg width="124" height="68" viewBox="0 0 124 68" fill="none" xmlns="http://www.w3.org/2000/svg">
<path d="M88.5279 15.8014C86.5822 15.0245 83.4963 14.1667 79.6802 14.1667C69.9389 14.1667 63.0789 19.3951 63.0369 26.8702C62.956 32.3853 67.9484 35.4487 71.6822 37.2875C75.4986 39.1666 76.7961 40.3931 76.7961 42.0679C76.7572 44.6403 73.7121 45.826 70.872 45.826C66.9336 45.826 64.8233 45.2149 61.6165 43.7838L60.3176 43.1701L58.9373 51.7896C61.2507 52.8507 65.5135 53.792 69.9389 53.8333C80.2892 53.8333 87.0278 48.6857 87.1078 40.7198C87.147 36.3488 84.5108 32.9993 78.8274 30.2625C75.3774 28.5056 73.2643 27.3208 73.2643 25.5232C73.3049 23.889 75.0516 22.2151 78.9461 22.2151C82.1532 22.1331 84.5092 22.909 86.2942 23.6854L87.1864 24.0931L88.5279 15.8014Z" fill="white"/>
<path d="M52.7685 53.261H42.9041L49.0739 14.8627H58.9378L52.7685 53.261Z" fill="white"/>
<path fill-rule="evenodd" clip-rule="evenodd" d="M106.185 14.8627H113.815L121.773 53.2604H112.64C112.64 53.2604 111.746 48.8486 111.463 47.5005H98.7973C98.4312 48.5214 96.7271 53.2604 96.7271 53.2604H86.3765L101.029 18.0486C102.044 15.5566 103.832 14.8627 106.185 14.8627ZM105.577 28.9145C105.577 28.9145 102.451 37.4519 101.639 39.6579H109.838C109.432 37.738 107.564 28.5467 107.564 28.5467L106.875 25.2382C106.585 26.09 106.165 27.261 105.882 28.0511C105.69 28.5866 105.56 28.9476 105.577 28.9145Z" fill="white"/>
<path d="M34.6645 14.8627L25.004 41.0468L23.9483 35.7363L23.9474 35.7332L20.4982 18.0905C19.9302 15.638 18.1846 14.9436 16.0334 14.8627H0.162367L0 15.6386C3.87086 16.6349 7.33299 18.0705 10.3666 19.8555L19.1588 53.2205H29.5903L45.0954 14.8627H34.6645Z" fill="white"/>
</svg>
